<?xml version="1.0" encoding="UTF-8"?>
<svg xmlns="http://www.w3.org/2000/svg" xmlns:xlink="http://www.w3.org/1999/xlink" width="152.12pt" height="152.12pt" viewBox="0 0 152.12 152.12" version="1.1">
<g id="surface1">
<path style=" stroke:none;fill-rule:nonzero;fill:rgb(92.89856%,16.499329%,14.898682%);fill-opacity:1;" d="M 151.0625 76.058594 C 151.0625 117.480469 117.484375 151.058594 76.0625 151.058594 C 34.640625 151.058594 1.0625 117.480469 1.0625 76.058594 C 1.0625 34.636719 34.640625 1.058594 76.0625 1.058594 C 117.484375 1.058594 151.0625 34.636719 151.0625 76.058594 "/>
<path style="fill:none;stroke-width:21.2264;stroke-linecap:butt;stroke-linejoin:miter;stroke:rgb(97.599792%,93.699646%,38.398743%);stroke-opacity:1;stroke-miterlimit:10;" d="M 1510.625 760.614063 C 1510.625 346.395313 1174.84375 10.614063 760.625 10.614063 C 346.40625 10.614063 10.625 346.395313 10.625 760.614063 C 10.625 1174.832813 346.40625 1510.614063 760.625 1510.614063 C 1174.84375 1510.614063 1510.625 1174.832813 1510.625 760.614063 Z M 1510.625 760.614063 " transform="matrix(0.1,0,0,-0.1,0,152.12)"/>
<path style=" stroke:none;fill-rule:nonzero;fill:rgb(97.999573%,94.099426%,37.599182%);fill-opacity:1;" d="M 125.117188 76.058594 C 125.117188 103.152344 103.15625 125.113281 76.0625 125.113281 C 48.96875 125.113281 27.003906 103.152344 27.003906 76.058594 C 27.003906 48.964844 48.96875 27.003906 76.0625 27.003906 C 103.15625 27.003906 125.117188 48.964844 125.117188 76.058594 "/>
<path style=" stroke:none;fill-rule:nonzero;fill:rgb(97.999573%,94.099426%,37.599182%);fill-opacity:1;" d="M 24.359375 113.5625 C 25.324219 114.15625 26.476563 114.691406 27.8125 115.167969 C 27.484375 113.628906 27.523438 112.175781 27.929688 110.808594 Z M 21.53125 113.929688 L 30.433594 107.054688 L 29.933594 108.628906 C 28.550781 110.980469 28.546875 113.207031 29.921875 115.308594 L 29.152344 117.828125 C 27.835938 117.4375 26.804688 117.074219 26.066406 116.730469 C 24.703125 116.078125 23.578125 115.453125 22.691406 114.851563 L 22.410156 115.070313 L 26.453125 120.308594 L 26.175781 122.339844 L 19.507813 113.699219 L 19.78125 111.667969 L 21.53125 113.929688 "/>
<path style=" stroke:none;fill-rule:nonzero;fill:rgb(97.999573%,94.099426%,37.599182%);fill-opacity:1;" d="M 19.191406 110.855469 C 18.398438 111.429688 17.503906 112.015625 16.5 112.621094 L 16.65625 111.585938 C 16.824219 111.453125 17.09375 111.175781 17.472656 110.757813 C 17.515625 110.667969 17.566406 110.546875 17.625 110.398438 L 16.824219 109.070313 L 17.332031 107.078125 L 18.828125 109.5625 L 28.503906 103.742188 L 27.914063 105.753906 L 21.148438 109.824219 C 20.789063 110.039063 20.554688 110.277344 20.4375 110.542969 C 20.148438 111.191406 20.15625 111.769531 20.464844 112.28125 C 20.5 112.34375 20.554688 112.4375 20.636719 112.570313 L 20.171875 114.550781 C 19.609375 113.804688 19.230469 113.203125 19.039063 112.75 C 18.777344 112.128906 18.828125 111.496094 19.191406 110.855469 "/>
<path style=" stroke:none;fill-rule:nonzero;fill:rgb(97.999573%,94.099426%,37.599182%);fill-opacity:1;" d="M 24.703125 97.980469 C 24.359375 99.027344 23.972656 100.914063 23.546875 103.640625 L 20.933594 104.902344 C 21.152344 103.949219 21.484375 102.78125 21.933594 101.40625 C 22.179688 100.636719 22.894531 99.003906 24.078125 96.496094 L 25.410156 95.851563 Z M 16.65625 104.261719 C 16.785156 104.523438 17.132813 104.773438 17.699219 105.007813 C 18.066406 105.15625 18.480469 105.125 18.941406 104.917969 C 19.289063 104.765625 19.402344 104.5625 19.28125 104.3125 C 19.1875 104.125 18.945313 103.914063 18.550781 103.679688 C 18.160156 103.445313 17.851563 103.328125 17.632813 103.324219 C 17.527344 103.332031 17.328125 103.402344 17.035156 103.542969 C 16.644531 103.734375 16.519531 103.972656 16.65625 104.261719 Z M 19.605469 102.160156 C 19.855469 102.320313 20.082031 102.613281 20.285156 103.039063 C 20.59375 103.675781 20.625 104.34375 20.371094 105.039063 C 20.117188 105.734375 19.667969 106.234375 19.027344 106.546875 C 18.4375 106.832031 17.785156 106.859375 17.078125 106.628906 C 16.371094 106.402344 15.875 106 15.597656 105.421875 C 15.300781 104.808594 15.289063 104.15625 15.558594 103.46875 C 15.832031 102.78125 16.28125 102.285156 16.910156 101.980469 C 17.300781 101.792969 17.753906 101.714844 18.269531 101.753906 C 18.78125 101.792969 19.226563 101.925781 19.605469 102.160156 "/>
<path style=" stroke:none;fill-rule:nonzero;fill:rgb(97.999573%,94.099426%,37.599182%);fill-opacity:1;" d="M 11.5625 92.074219 L 22.0625 88.796875 L 21.144531 90.613281 L 15.542969 92.363281 C 15.292969 92.441406 15.085938 92.636719 14.917969 92.949219 C 14.753906 93.261719 14.710938 93.550781 14.792969 93.808594 C 14.855469 94.011719 15.015625 94.144531 15.265625 94.199219 C 15.480469 94.234375 15.886719 94.109375 16.480469 93.820313 L 17.171875 94.695313 C 16.855469 94.664063 16.613281 94.738281 16.453125 94.921875 C 16.136719 95.3125 15.960938 95.5625 15.921875 95.675781 C 15.691406 96.097656 15.65625 96.578125 15.824219 97.109375 C 15.957031 97.53125 16.222656 97.863281 16.625 98.09375 C 17.023438 98.328125 17.4375 98.375 17.863281 98.242188 C 18.40625 98.074219 18.699219 97.726563 18.738281 97.203125 C 18.609375 97.300781 18.464844 97.375 18.304688 97.425781 C 17.949219 97.539063 17.605469 97.503906 17.277344 97.320313 C 16.953125 97.136719 16.730469 96.859375 16.613281 96.488281 C 16.421875 95.921875 16.621094 95.410156 17.207031 94.949219 C 17.671875 94.570313 18.039063 94.398438 18.3125 94.429688 C 19.121094 94.496094 19.652344 94.941406 19.910156 95.765625 C 20.132813 96.484375 20.136719 97.175781 19.914063 97.84375 C 19.691406 98.511719 19.257813 99.023438 18.613281 99.386719 C 18.363281 99.523438 18.097656 99.632813 17.820313 99.722656 C 17.089844 99.949219 16.375 99.945313 15.675781 99.710938 C 14.882813 99.464844 14.371094 98.992188 14.136719 98.289063 C 13.886719 97.539063 13.960938 96.785156 14.351563 96.035156 L 14.488281 95.839844 C 14.207031 95.785156 13.921875 95.65625 13.636719 95.460938 C 13.351563 95.265625 13.179688 95.054688 13.121094 94.824219 C 13.015625 94.390625 13.042969 93.996094 13.210938 93.636719 C 13.332031 93.46875 13.441406 93.3125 13.542969 93.164063 C 13.578125 93.09375 13.621094 93.019531 13.671875 92.949219 L 11.996094 93.46875 L 14.375 101.082031 L 13.429688 102.949219 L 9.757813 91.195313 L 10.703125 89.324219 L 11.5625 92.074219 "/>
<path style=" stroke:none;fill-rule:nonzero;fill:rgb(97.999573%,94.099426%,37.599182%);fill-opacity:1;" d="M 10.496094 88.15625 C 9.550781 88.40625 8.503906 88.632813 7.351563 88.835938 L 7.871094 87.925781 C 8.070313 87.863281 8.425781 87.703125 8.929688 87.445313 C 9.003906 87.378906 9.09375 87.285156 9.199219 87.167969 L 8.933594 85.640625 L 10.121094 83.960938 L 10.621094 86.820313 L 21.746094 84.875 L 20.472656 86.539063 L 12.695313 87.898438 C 12.285156 87.972656 11.976563 88.109375 11.773438 88.316406 C 11.269531 88.8125 11.066406 89.355469 11.167969 89.945313 C 11.179688 90.015625 11.199219 90.125 11.226563 90.273438 L 10.082031 91.957031 C 9.824219 91.058594 9.6875 90.359375 9.671875 89.867188 C 9.652344 89.195313 9.929688 88.625 10.496094 88.15625 "/>
<path style=" stroke:none;fill-rule:nonzero;fill:rgb(97.999573%,94.099426%,37.599182%);fill-opacity:1;" d="M 10.132813 79.152344 C 10.890625 80.691406 12.042969 81.609375 13.589844 81.898438 C 14.386719 82.054688 15.214844 82.097656 16.074219 82.023438 C 16.449219 81.992188 16.765625 81.9375 17.023438 81.859375 C 17.472656 81.722656 17.898438 81.480469 18.300781 81.125 C 18.796875 80.691406 19.023438 80.265625 18.988281 79.851563 C 18.984375 79.78125 18.980469 79.734375 18.976563 79.703125 C 19.085938 79.640625 19.207031 79.777344 19.347656 80.113281 C 19.332031 79.949219 19.292969 79.867188 19.222656 79.875 C 19.234375 79.871094 19.117188 79.960938 18.867188 80.144531 C 18.617188 80.324219 18.425781 80.4375 18.289063 80.476563 C 17.699219 80.621094 17.207031 80.40625 16.808594 79.824219 C 16.664063 79.601563 16.582031 79.375 16.566406 79.15625 C 16.539063 78.863281 16.609375 78.621094 16.773438 78.425781 C 16.996094 77.902344 17.414063 77.617188 18.023438 77.566406 C 18.5625 77.519531 19.035156 77.691406 19.4375 78.074219 C 19.839844 78.460938 20.0625 78.921875 20.109375 79.464844 C 20.167969 80.171875 20.035156 80.753906 19.710938 81.214844 C 18.699219 82.640625 17.191406 83.4375 15.179688 83.605469 C 13.433594 83.753906 11.714844 83.269531 10.03125 82.15625 L 10.265625 84.941406 L 8.929688 86.519531 L 8.265625 78.617188 L 9.5625 77.082031 C 9.65625 77.859375 9.84375 78.546875 10.132813 79.152344 "/>
<path style=" stroke:none;fill-rule:nonzero;fill:rgb(97.999573%,94.099426%,37.599182%);fill-opacity:1;" d="M 9.71875 75.082031 L 13.472656 75.269531 C 13.199219 74.921875 12.792969 74.398438 12.257813 73.703125 C 11.710938 72.9375 11.21875 71.910156 10.78125 70.621094 L 12.40625 68.65625 C 14.246094 69.722656 15.890625 70.292969 17.335938 70.367188 C 17.640625 70.382813 17.949219 70.375 18.257813 70.347656 C 18.40625 70.371094 19.28125 70.289063 20.882813 70.105469 L 20.238281 71.230469 C 18.273438 71.542969 16.789063 71.675781 15.789063 71.625 C 14.96875 71.582031 14.171875 71.472656 13.402344 71.296875 C 14.035156 73.097656 15.332031 74.4375 17.292969 75.316406 L 15.480469 76.917969 L 9.644531 76.625 L 9.59375 77.5625 L 8.0625 78.96875 L 8.628906 67.730469 L 10.160156 66.324219 L 9.71875 75.082031 "/>
<path style=" stroke:none;fill-rule:nonzero;fill:rgb(97.999573%,94.099426%,37.599182%);fill-opacity:1;" d="M 12.386719 57.152344 L 23.066406 59.597656 L 21.289063 60.734375 L 14.878906 59.179688 C 14.578125 59.109375 14.082031 59.226563 13.386719 59.523438 C 12.6875 59.820313 12.320313 60.121094 12.277344 60.425781 C 12.226563 60.914063 12.332031 61.230469 12.601563 61.378906 C 13.046875 61.007813 13.359375 60.765625 13.546875 60.652344 C 13.914063 60.421875 14.289063 60.308594 14.664063 60.308594 C 15.066406 60.316406 15.441406 60.4375 15.789063 60.671875 C 16.253906 60.980469 16.402344 61.492188 16.238281 62.210938 C 16.105469 62.792969 15.691406 63.226563 14.996094 63.511719 C 15.230469 63.734375 15.410156 64.03125 15.535156 64.394531 C 15.65625 64.757813 15.683594 65.089844 15.617188 65.386719 C 15.519531 65.820313 15.265625 66.132813 14.863281 66.316406 C 14.460938 66.503906 14.042969 66.546875 13.613281 66.449219 C 13.195313 66.351563 12.792969 66.066406 12.40625 65.59375 C 12.050781 65.167969 11.820313 64.726563 11.714844 64.257813 C 11.53125 64.316406 11.304688 64.414063 11.03125 64.550781 C 10.765625 64.777344 10.585938 65.078125 10.484375 65.453125 C 10.574219 65.058594 10.488281 65.433594 10.226563 66.574219 L 8.476563 67.671875 L 9.070313 65.085938 C 9.1875 64.570313 9.433594 64.148438 9.808594 63.820313 C 10.230469 63.546875 10.449219 63.402344 10.464844 63.394531 C 10.710938 63.25 10.945313 63.152344 11.171875 63.105469 C 10.546875 62.546875 10.207031 61.792969 10.148438 60.835938 C 10.136719 60.578125 10.144531 60.402344 10.164063 60.304688 C 10.28125 59.804688 11.207031 59.253906 12.949219 58.652344 L 13.339844 58.507813 L 10.972656 58.179688 L 8.550781 57.730469 C 9.03125 57.390625 9.429688 57.132813 9.742188 56.953125 C 9.917969 56.890625 10.097656 56.878906 10.292969 56.910156 C 10.359375 56.9375 10.441406 56.957031 10.539063 56.964844 C 10.742188 56.910156 10.898438 56.785156 11.019531 56.582031 L 11.230469 55.644531 L 12.984375 54.546875 L 12.386719 57.152344 "/>
<path style=" stroke:none;fill-rule:nonzero;fill:rgb(97.999573%,94.099426%,37.599182%);fill-opacity:1;" d="M 21.074219 38.652344 L 30.710938 44.214844 C 29.855469 44.300781 29.390625 44.34375 29.308594 44.34375 C 29.035156 44.347656 28.597656 44.296875 28 44.191406 C 27.328125 44.078125 26.859375 44.019531 26.601563 44.023438 C 26.34375 44.027344 25.878906 44.09375 25.210938 44.222656 C 25.707031 45.3125 25.695313 46.308594 25.171875 47.210938 C 24.9375 47.621094 24.578125 47.996094 24.089844 48.335938 C 23.605469 48.675781 23.117188 48.910156 22.625 49.042969 C 22.222656 49.148438 21.582031 49.234375 20.691406 49.300781 C 20.171875 49.339844 19.292969 49.242188 18.0625 49.011719 C 16.871094 48.792969 16.003906 48.582031 15.460938 48.382813 L 16.382813 47.660156 L 18.566406 48.050781 C 19.273438 48.167969 19.84375 48.160156 20.289063 48.03125 C 21.132813 47.796875 21.710938 47.589844 22.019531 47.414063 C 22.5625 47.117188 22.976563 46.675781 23.269531 46.089844 C 23.742188 45.15625 23.550781 44.441406 22.695313 43.949219 C 22.285156 43.714844 21.835938 43.597656 21.347656 43.605469 C 21.03125 43.601563 20.832031 43.679688 20.753906 43.84375 C 20.761719 43.832031 20.832031 43.992188 20.960938 44.324219 C 21.136719 44.796875 21.160156 45.171875 21.03125 45.449219 C 20.796875 45.941406 20.441406 46.277344 19.957031 46.457031 C 19.476563 46.636719 19.03125 46.609375 18.621094 46.371094 C 18.355469 46.21875 18.144531 45.984375 17.988281 45.671875 C 17.871094 45.457031 17.832031 45.191406 17.867188 44.878906 C 17.90625 44.5625 17.992188 44.300781 18.132813 44.089844 C 18.78125 43.128906 19.65625 42.527344 20.753906 42.277344 C 21.855469 42.027344 22.886719 42.222656 23.851563 42.859375 L 25.441406 42.859375 L 20.34375 39.917969 L 15.460938 48.382813 L 13.46875 48.914063 L 20.570313 36.605469 L 22.574219 36.050781 L 21.074219 38.652344 "/>
<path style=" stroke:none;fill-rule:nonzero;fill:rgb(97.999573%,94.099426%,37.599182%);fill-opacity:1;" d="M 29.050781 33.28125 C 29.238281 32.292969 29.140625 31.441406 28.753906 30.726563 C 28.707031 30.609375 28.722656 30.511719 28.796875 30.425781 C 28.988281 30.207031 29.640625 30.144531 30.75 30.238281 C 31.917969 30.328125 32.730469 30.585938 33.191406 31.011719 C 34.453125 32.171875 35.003906 33.621094 34.851563 35.363281 C 34.789063 36 34.453125 36.660156 33.84375 37.347656 C 33.203125 38.0625 32.417969 38.527344 31.484375 38.738281 C 30.191406 39.023438 28.546875 38.800781 26.550781 38.066406 C 26.160156 37.925781 24.996094 37.421875 23.0625 36.558594 L 24.089844 35.9375 C 26.402344 37.042969 28.40625 37.425781 30.101563 37.09375 C 30.980469 36.921875 31.730469 36.484375 32.359375 35.777344 C 33.101563 34.945313 33.203125 33.898438 32.664063 32.640625 C 32.53125 32.332031 32.257813 32.0625 31.847656 31.828125 C 31.59375 31.675781 31.4375 31.59375 31.375 31.578125 C 31.253906 31.503906 31.160156 31.484375 31.09375 31.519531 C 31.121094 31.65625 31.164063 31.898438 31.222656 32.25 C 31.296875 32.691406 31.164063 33.289063 30.828125 34.046875 C 30.722656 34.3125 30.519531 34.621094 30.214844 34.984375 C 29.636719 35.679688 28.890625 36.035156 27.984375 36.046875 C 27.554688 36.054688 27.113281 35.855469 26.664063 35.460938 C 26.21875 35.0625 25.996094 34.609375 26.003906 34.101563 C 26.007813 33.59375 26.226563 33.125 26.667969 32.695313 C 26.9375 32.433594 27.265625 32.296875 27.648438 32.28125 C 28.03125 32.269531 28.367188 32.394531 28.660156 32.652344 C 28.828125 32.800781 28.957031 33.007813 29.050781 33.28125 Z M 22.746094 36.222656 L 20.671875 36.355469 L 29.117188 26.859375 L 31.222656 26.691406 L 22.746094 36.222656 "/>
<path style=" stroke:none;fill-rule:nonzero;fill:rgb(97.999573%,94.099426%,37.599182%);fill-opacity:1;" d="M 34.722656 24.082031 C 34.410156 24.339844 34.207031 24.660156 34.105469 25.035156 C 34.003906 25.410156 34.050781 25.773438 34.25 26.113281 C 34.585938 26.6875 35.300781 27.429688 36.398438 28.34375 C 37.675781 29.414063 38.4375 30.089844 38.679688 30.378906 C 39.46875 31.316406 39.632813 32.484375 39.175781 33.886719 C 38.972656 34.550781 38.742188 34.992188 38.484375 35.207031 C 38.21875 35.429688 37.929688 35.445313 37.621094 35.25 C 37.566406 35.226563 37.519531 35.191406 37.484375 35.148438 C 37.367188 35.011719 37.394531 34.804688 37.566406 34.535156 C 37.792969 34.179688 37.914063 33.988281 37.925781 33.957031 C 38.042969 33.40625 38.097656 33.070313 38.089844 32.949219 C 38.046875 32.640625 37.847656 32.234375 37.496094 31.730469 C 37.347656 31.507813 36.855469 31.105469 36.015625 30.519531 C 35.113281 29.878906 34.484375 29.34375 34.125 28.917969 C 33.652344 28.355469 33.335938 27.664063 33.179688 26.851563 C 33.148438 26.425781 33.113281 25.996094 33.082031 25.570313 L 31.085938 27.25 L 29.011719 27.085938 L 34.21875 22.703125 L 36.339844 22.828125 C 35.890625 23.136719 35.347656 23.554688 34.722656 24.082031 "/>
<path style=" stroke:none;fill-rule:nonzero;fill:rgb(97.999573%,94.099426%,37.599182%);fill-opacity:1;" d="M 41.125 22.136719 C 41.277344 22.222656 41.402344 22.339844 41.5 22.492188 C 41.710938 22.820313 41.78125 23.207031 41.71875 23.652344 C 41.65625 24.097656 41.46875 24.414063 41.164063 24.609375 C 40.695313 24.910156 40.222656 24.96875 39.742188 24.785156 C 39.265625 24.601563 38.933594 24.25 38.746094 23.722656 C 38.390625 22.699219 38.675781 21.890625 39.605469 21.300781 C 40.132813 20.964844 40.738281 20.800781 41.421875 20.8125 C 42.308594 20.808594 42.9375 20.863281 43.304688 20.972656 C 43.609375 20.515625 43.589844 20.019531 43.246094 19.480469 C 43.132813 19.304688 42.910156 19.132813 42.574219 18.964844 C 42.453125 18.910156 42.308594 18.9375 42.132813 19.050781 L 35.632813 23.183594 L 33.5625 22.765625 L 44.660156 15.710938 L 46.695313 16.148438 L 43.328125 18.289063 L 43.105469 17.933594 C 43.246094 17.847656 43.582031 18.011719 44.113281 18.433594 C 44.59375 18.800781 44.898438 19.078125 45.015625 19.269531 C 45.226563 19.597656 45.296875 20.019531 45.230469 20.539063 C 45.238281 20.601563 45.160156 21.039063 45 21.851563 C 44.214844 22.167969 43.640625 22.292969 43.285156 22.222656 L 43.324219 22.246094 C 43.128906 22.273438 42.738281 22.234375 42.15625 22.125 C 41.742188 22.09375 41.398438 22.097656 41.125 22.136719 "/>
<path style=" stroke:none;fill-rule:nonzero;fill:rgb(97.999573%,94.099426%,37.599182%);fill-opacity:1;" d="M 45.3125 22.484375 C 45.59375 22.667969 45.8125 22.917969 45.96875 23.226563 C 46.175781 23.636719 46.191406 24.054688 46.007813 24.480469 C 45.828125 24.910156 45.53125 25.226563 45.121094 25.433594 C 44.761719 25.617188 44.390625 25.6875 44.011719 25.644531 C 43.582031 25.597656 43.246094 25.421875 43 25.125 C 42.839844 24.925781 42.714844 24.742188 42.625 24.566406 C 42.425781 24.171875 42.359375 23.734375 42.433594 23.261719 C 42.507813 22.789063 42.699219 22.402344 43.015625 22.101563 C 43.289063 21.902344 43.53125 21.714844 43.742188 21.546875 L 43.964844 21.433594 C 44.039063 21.398438 44.132813 21.351563 44.242188 21.292969 C 44.542969 21.144531 44.742188 21.09375 44.851563 21.148438 C 46.292969 20.824219 47.390625 21.421875 48.140625 22.9375 C 48.722656 24.089844 48.738281 25.214844 48.1875 26.316406 C 47.964844 26.773438 47.707031 27.128906 47.417969 27.382813 C 47.21875 27.546875 46.847656 27.765625 46.300781 28.042969 C 45.988281 28.199219 45.664063 28.292969 45.320313 28.328125 C 45.273438 28.320313 45.035156 28.332031 44.613281 28.359375 C 42.964844 28.488281 41.207031 27.804688 39.339844 26.300781 C 39.269531 26.257813 39.039063 26.050781 38.652344 25.6875 C 37.386719 24.535156 36.367188 23.433594 35.605469 22.386719 L 36.640625 22.445313 C 37.371094 23.058594 38.488281 23.929688 39.996094 25.054688 C 42.171875 26.527344 44.003906 26.890625 45.480469 26.140625 C 46.0625 25.847656 46.496094 25.441406 46.78125 24.921875 C 47.101563 24.324219 47.121094 23.746094 46.839844 23.1875 C 46.574219 22.664063 46.15625 22.40625 45.585938 22.414063 C 45.492188 22.417969 45.402344 22.441406 45.3125 22.484375 "/>
<path style=" stroke:none;fill-rule:nonzero;fill:rgb(97.999573%,94.099426%,37.599182%);fill-opacity:1;" d="M 53.648438 24.082031 C 53.300781 24.226563 52.957031 24.21875 52.613281 24.066406 C 52.273438 23.914063 52.035156 23.675781 51.902344 23.355469 C 51.777344 23.046875 51.777344 22.734375 51.902344 22.417969 C 52.027344 22.105469 52.246094 21.882813 52.554688 21.757813 C 52.824219 21.644531 53.113281 21.632813 53.417969 21.71875 C 53.726563 21.800781 53.964844 21.964844 54.140625 22.210938 C 54.359375 22.527344 54.421875 22.878906 54.328125 23.273438 C 54.234375 23.664063 54.007813 23.933594 53.648438 24.082031 Z M 53.339844 16.199219 C 52.425781 17.011719 51.597656 17.996094 50.855469 19.160156 C 52.503906 19.21875 53.925781 19.671875 55.117188 20.523438 Z M 53.8125 13.5 L 57.9375 23.539063 L 56.945313 23.15625 C 55.839844 22.257813 55.234375 21.777344 55.132813 21.710938 C 54.484375 21.273438 53.769531 20.992188 52.984375 20.878906 C 52.039063 20.742188 51.125 20.824219 50.242188 21.125 L 48.011719 19.765625 C 49.425781 17.527344 50.949219 15.730469 52.585938 14.363281 L 52.460938 14.054688 L 46.667969 16.433594 L 44.742188 15.648438 L 54.414063 11.671875 L 56.339844 12.460938 L 53.8125 13.5 "/>
<path style=" stroke:none;fill-rule:nonzero;fill:rgb(97.999573%,94.099426%,37.599182%);fill-opacity:1;" d="M 58.382813 12.136719 L 61.375 22.722656 L 59.589844 21.710938 L 56.996094 12.53125 L 55.851563 12.855469 L 53.925781 11.878906 L 56.679688 11.101563 L 56.410156 10.613281 C 56.273438 10.335938 55.863281 9.9375 55.183594 9.421875 C 53.984375 8.503906 52.320313 8.34375 50.191406 8.945313 C 49.734375 9.074219 49.253906 9.269531 48.75 9.527344 C 48.070313 9.878906 47.761719 10.179688 47.835938 10.4375 C 47.890625 10.621094 48.164063 10.652344 48.664063 10.527344 C 49.542969 10.308594 50.359375 10.128906 51.113281 9.984375 L 51.359375 9.9375 C 52.910156 9.644531 53.886719 10.15625 54.289063 11.472656 C 54.355469 11.714844 54.386719 11.996094 54.375 12.316406 L 52.589844 12.820313 C 53.035156 12.203125 53.238281 11.820313 53.195313 11.675781 C 53.109375 11.367188 52.578125 11.320313 51.597656 11.539063 C 50.445313 11.808594 49.84375 11.941406 49.800781 11.941406 C 49.261719 12.019531 48.679688 11.972656 48.058594 11.792969 C 47.433594 11.613281 47.035156 11.21875 46.863281 10.601563 C 46.691406 10 46.945313 9.398438 47.617188 8.804688 C 48.398438 8.121094 49.25 7.648438 50.179688 7.386719 C 50.851563 7.195313 51.765625 7.121094 52.921875 7.152344 C 53.453125 7.175781 54.121094 7.363281 54.929688 7.714844 C 55.378906 7.90625 55.855469 8.230469 56.371094 8.683594 C 56.882813 9.140625 57.273438 9.574219 57.535156 9.992188 L 57.984375 10.734375 L 59.6875 10.25 L 61.472656 11.265625 L 58.382813 12.136719 "/>
<path style=" stroke:none;fill-rule:nonzero;fill:rgb(97.999573%,94.099426%,37.599182%);fill-opacity:1;" d="M 64.152344 14.570313 C 64.128906 14.417969 64.105469 14.28125 64.085938 14.15625 C 63.976563 13.484375 64.316406 13.085938 65.097656 12.960938 C 65.71875 12.859375 66.207031 13.101563 66.566406 13.675781 C 66.679688 13.855469 66.75 14.035156 66.777344 14.214844 C 66.859375 14.722656 66.671875 15.183594 66.21875 15.59375 C 65.808594 15.953125 65.339844 16.148438 64.808594 16.175781 C 63.902344 16.234375 63.152344 15.984375 62.554688 15.414063 C 62.003906 14.898438 61.664063 14.226563 61.535156 13.402344 C 61.402344 12.5625 61.5 11.785156 61.839844 11.070313 C 62.21875 10.277344 62.800781 9.738281 63.589844 9.460938 C 63.882813 9.355469 64.148438 9.285156 64.382813 9.25 C 64.683594 9.199219 64.953125 9.207031 65.1875 9.269531 C 65.605469 9.425781 65.863281 9.527344 65.953125 9.566406 C 66.503906 9.847656 67.070313 10.398438 67.652344 11.21875 C 67.546875 10.816406 67.425781 10.355469 67.285156 9.84375 C 67.136719 9.261719 66.960938 8.160156 66.761719 6.542969 C 66.953125 6.691406 67.152344 6.839844 67.359375 6.988281 C 67.6875 7.269531 67.882813 7.484375 67.949219 7.640625 C 68.050781 7.914063 68.148438 8.097656 68.246094 8.1875 C 68.347656 8.273438 68.546875 8.390625 68.851563 8.535156 L 70.070313 8.339844 L 71.742188 9.554688 L 68.753906 10.03125 L 70.472656 20.8125 L 68.675781 19.492188 L 67.753906 13.699219 C 67.621094 12.875 67.210938 12.191406 66.523438 11.65625 C 65.945313 11.195313 65.363281 11.015625 64.773438 11.109375 C 64.269531 11.191406 63.886719 11.460938 63.632813 11.925781 C 63.375 12.390625 63.28125 12.8125 63.339844 13.199219 C 63.398438 13.554688 63.539063 13.898438 63.761719 14.230469 C 63.882813 14.421875 64.015625 14.535156 64.152344 14.570313 "/>
<path style=" stroke:none;fill-rule:nonzero;fill:rgb(97.999573%,94.099426%,37.599182%);fill-opacity:1;" d="M 80.921875 18.949219 C 80.824219 18.761719 80.765625 18.542969 80.742188 18.289063 C 80.78125 17.746094 80.984375 17.351563 81.351563 17.097656 C 81.511719 16.984375 81.871094 16.933594 82.429688 16.945313 C 82.761719 16.957031 83.058594 17.128906 83.3125 17.460938 C 83.566406 17.792969 83.683594 18.132813 83.65625 18.480469 C 83.617188 19.035156 83.386719 19.492188 82.960938 19.851563 C 82.539063 20.210938 82.046875 20.371094 81.492188 20.332031 C 80.800781 20.28125 80.238281 20.050781 79.804688 19.644531 C 78.527344 18.421875 77.960938 16.785156 78.109375 14.730469 C 78.136719 14.382813 78.183594 14.03125 78.25 13.671875 C 78.535156 12.019531 79.347656 10.65625 80.679688 9.578125 C 81.527344 8.886719 82.386719 8.570313 83.261719 8.636719 L 84.574219 10.152344 C 83.328125 10.1875 82.28125 10.574219 81.433594 11.308594 C 80.273438 12.339844 79.628906 13.722656 79.503906 15.457031 C 79.476563 15.804688 79.519531 16.289063 79.628906 16.910156 C 79.816406 17.984375 80.246094 18.664063 80.921875 18.949219 "/>
<path style=" stroke:none;fill-rule:nonzero;fill:rgb(97.999573%,94.099426%,37.599182%);fill-opacity:1;" d="M 87.929688 14.488281 C 88.109375 14.910156 88.203125 15.257813 88.203125 15.523438 C 88.199219 15.679688 88.179688 15.832031 88.152344 15.984375 C 88.058594 16.417969 87.84375 16.742188 87.5 16.957031 C 87.15625 17.167969 86.738281 17.222656 86.25 17.121094 C 84.820313 16.824219 84.253906 15.960938 84.550781 14.527344 C 84.703125 13.808594 85.09375 13.261719 85.722656 12.898438 C 86.355469 12.53125 87.03125 12.421875 87.753906 12.574219 C 89.074219 12.851563 90.027344 13.902344 90.613281 15.730469 L 90.6875 15.980469 L 91.609375 11.566406 L 84.765625 10.136719 L 83.632813 8.410156 L 94.746094 10.730469 L 95.941406 12.472656 L 93.039063 11.863281 L 90.730469 22.9375 L 90.152344 21.710938 C 90.328125 21.222656 90.367188 20.441406 90.28125 19.371094 C 90.214844 18.390625 90.128906 17.675781 90.023438 17.226563 C 89.839844 16.476563 89.515625 15.835938 89.0625 15.300781 C 88.695313 14.867188 88.320313 14.597656 87.929688 14.488281 "/>
<path style=" stroke:none;fill-rule:nonzero;fill:rgb(97.999573%,94.099426%,37.599182%);fill-opacity:1;" d="M 93.28125 7.191406 L 93.300781 7.195313 C 93.792969 7.347656 94.535156 7.566406 95.523438 7.859375 C 95.914063 7.960938 96.210938 8.046875 96.40625 8.113281 C 97.355469 8.433594 98.035156 8.882813 98.441406 9.460938 C 98.902344 10.097656 98.988281 10.839844 98.703125 11.683594 C 98.65625 11.828125 98.605469 11.976563 98.558594 12.121094 L 100.101563 12.640625 L 101.019531 14.492188 L 97.992188 13.46875 L 94.410156 24.089844 L 93.417969 22.128906 L 96.507813 12.96875 L 95.003906 12.464844 L 94.089844 10.609375 L 97.074219 11.617188 C 97.207031 11.53125 97.300781 11.410156 97.351563 11.25 C 97.492188 10.84375 97.292969 10.511719 96.761719 10.257813 C 96.429688 10.117188 95.835938 9.910156 94.988281 9.636719 C 94.125 9.375 93.589844 9.195313 93.386719 9.097656 C 92.6875 8.773438 92.128906 8.371094 91.703125 7.890625 C 91.164063 7.269531 91.003906 6.628906 91.226563 5.96875 C 91.292969 5.769531 91.46875 5.488281 91.746094 5.117188 C 92.023438 4.75 92.25 4.542969 92.425781 4.5 C 92.558594 4.457031 92.648438 4.472656 92.699219 4.546875 L 93.144531 5.316406 C 92.734375 5.441406 92.492188 5.609375 92.421875 5.820313 C 92.332031 6.214844 92.347656 6.503906 92.460938 6.683594 C 92.578125 6.859375 92.851563 7.03125 93.28125 7.191406 "/>
<path style=" stroke:none;fill-rule:nonzero;fill:rgb(97.999573%,94.099426%,37.599182%);fill-opacity:1;" d="M 98.195313 20.476563 L 98.910156 18.898438 L 103.96875 21.1875 L 103.253906 22.765625 L 98.195313 20.476563 "/>
<path style=" stroke:none;fill-rule:nonzero;fill:rgb(97.999573%,94.099426%,37.599182%);fill-opacity:1;" d="M 109.96875 22.230469 L 112.644531 21.691406 C 112.484375 21.152344 112.230469 20.769531 111.882813 20.539063 C 111.113281 20.035156 110.382813 19.929688 109.691406 20.222656 C 110.242188 20.699219 110.335938 21.371094 109.96875 22.230469 Z M 114.179688 23.652344 L 114.65625 22.664063 L 116.585938 19.464844 L 117.011719 20.566406 C 117.003906 20.628906 116.996094 20.699219 116.992188 20.78125 C 116.824219 21.085938 116.753906 21.324219 116.777344 21.488281 L 116.917969 21.804688 C 117.035156 21.882813 117.203125 21.992188 117.425781 22.140625 C 117.785156 22.375 118.011719 22.539063 118.101563 22.632813 L 118.503906 24.597656 L 116.046875 22.980469 L 110.125 31.976563 C 109.929688 31.515625 109.757813 30.84375 109.605469 29.957031 L 112.726563 25.480469 C 112.972656 24.589844 113.023438 23.921875 112.878906 23.476563 L 108.015625 24.535156 L 106.785156 22.855469 L 108.378906 22.480469 C 108.496094 22.457031 108.613281 22.351563 108.734375 22.164063 C 109.042969 21.703125 109.0625 21.390625 108.800781 21.234375 C 108.742188 21.195313 108.320313 21.078125 107.535156 20.878906 C 107.273438 20.769531 107.105469 20.550781 107.03125 20.21875 C 106.957031 19.890625 106.996094 19.605469 107.152344 19.375 C 107.265625 19.199219 107.445313 19.050781 107.691406 18.929688 C 109.421875 18.101563 110.996094 18.140625 112.417969 19.042969 C 113.15625 19.511719 113.675781 20.1875 113.980469 21.070313 C 114.253906 21.867188 114.320313 22.730469 114.179688 23.652344 "/>
<path style=" stroke:none;fill-rule:nonzero;fill:rgb(97.999573%,94.099426%,37.599182%);fill-opacity:1;" d="M 126.984375 27.738281 C 126.714844 26.476563 126.082031 25.410156 125.082031 24.546875 C 124.535156 24.074219 123.746094 23.769531 122.722656 23.636719 C 122.445313 23.65625 122.09375 23.71875 121.65625 23.816406 C 121.152344 23.933594 120.863281 24.042969 120.792969 24.148438 L 120.566406 24.945313 L 121.988281 26.175781 L 122.136719 28.234375 L 119.945313 26.339844 L 112.84375 34.546875 L 112.636719 32.488281 L 118.808594 25.355469 L 117.742188 24.433594 L 117.601563 22.378906 L 119.652344 24.15625 C 119.632813 23.898438 119.625 23.640625 119.625 23.371094 C 119.625 23.105469 119.707031 22.878906 119.871094 22.6875 C 120.15625 22.382813 120.433594 22.1875 120.703125 22.109375 C 121.367188 21.894531 121.820313 21.777344 122.054688 21.761719 C 123.386719 21.644531 124.496094 21.96875 125.378906 22.734375 C 126.421875 23.636719 127.214844 24.964844 127.753906 26.71875 C 127.941406 27.269531 128.066406 28.113281 128.132813 29.253906 L 127.589844 30.578125 L 126.984375 27.738281 "/>
<path style=" stroke:none;fill-rule:nonzero;fill:rgb(97.999573%,94.099426%,37.599182%);fill-opacity:1;" d="M 124.179688 33.84375 C 123.097656 33.269531 121.882813 32.839844 120.535156 32.550781 C 121.058594 34.117188 121.128906 35.605469 120.746094 37.019531 Z M 126.871094 33.34375 L 118.90625 40.714844 L 118.917969 39.652344 C 119.371094 38.300781 119.613281 37.566406 119.636719 37.449219 C 119.824219 36.6875 119.835938 35.921875 119.667969 35.144531 C 119.46875 34.210938 119.070313 33.382813 118.480469 32.664063 L 118.976563 30.097656 C 121.566406 30.640625 123.785156 31.441406 125.632813 32.496094 L 125.878906 32.269531 L 121.625 27.675781 L 121.691406 25.59375 L 128.796875 33.269531 L 128.730469 35.347656 Z M 116.898438 36.886719 C 116.644531 36.609375 116.527344 36.285156 116.550781 35.910156 C 116.574219 35.539063 116.714844 35.234375 116.96875 34.996094 C 117.214844 34.769531 117.507813 34.660156 117.847656 34.667969 C 118.1875 34.675781 118.46875 34.804688 118.695313 35.050781 C 118.894531 35.261719 119.007813 35.527344 119.035156 35.84375 C 119.0625 36.160156 118.992188 36.445313 118.824219 36.691406 C 118.605469 37.011719 118.296875 37.191406 117.894531 37.242188 C 117.496094 37.289063 117.160156 37.171875 116.898438 36.886719 "/>
<path style=" stroke:none;fill-rule:nonzero;fill:rgb(97.999573%,94.099426%,37.599182%);fill-opacity:1;" d="M 130.140625 42.0625 C 129.214844 41.410156 128.101563 40.800781 126.800781 40.234375 C 127.023438 41.792969 126.890625 43.238281 126.398438 44.578125 Z M 132.988281 41.886719 L 123.648438 48.15625 L 124.253906 46.621094 C 125.789063 44.367188 125.9375 42.144531 124.703125 39.957031 L 125.640625 37.492188 C 126.929688 37.96875 127.933594 38.402344 128.648438 38.792969 C 129.964844 39.53125 131.046875 40.230469 131.890625 40.886719 L 132.1875 40.691406 L 128.496094 35.195313 L 128.90625 33.1875 L 134.992188 42.25 L 134.582031 44.261719 L 132.988281 41.886719 "/>
<path style=" stroke:none;fill-rule:nonzero;fill:rgb(97.999573%,94.099426%,37.599182%);fill-opacity:1;" d="M 135.488281 47.699219 C 135.644531 47.441406 135.695313 47.171875 135.644531 46.890625 L 134.359375 44.105469 L 135.050781 42.109375 L 139.597656 51.988281 L 138.871094 53.90625 L 136.394531 48.523438 L 136.296875 48.613281 C 136.246094 48.695313 136.164063 48.824219 136.0625 48.996094 C 136.160156 49.210938 136.214844 49.515625 136.226563 49.90625 C 136.300781 51.132813 135.855469 52.109375 134.890625 52.84375 C 134.730469 52.964844 134.5625 53.0625 134.386719 53.144531 C 133.363281 53.617188 132.335938 53.476563 131.300781 52.730469 C 131.160156 52.625 130.832031 52.363281 130.316406 51.941406 C 130.320313 51.984375 130.320313 52.035156 130.320313 52.101563 C 130.304688 52.367188 130.285156 52.660156 130.265625 52.976563 C 130.179688 53.71875 129.996094 54.488281 129.714844 55.273438 C 129.671875 55.417969 129.378906 56.15625 128.832031 57.496094 L 126.949219 59.097656 C 127.296875 58.324219 127.523438 57.824219 127.632813 57.589844 C 128.117188 56.445313 128.449219 54.921875 128.628906 53.015625 C 128.78125 51.550781 128.671875 50.117188 128.300781 48.710938 L 130.929688 45.890625 C 130.675781 47.433594 130.777344 48.703125 131.238281 49.699219 C 131.6875 50.675781 132.441406 51.367188 133.507813 51.78125 C 133.765625 51.878906 133.996094 51.878906 134.195313 51.785156 C 134.410156 51.6875 134.605469 51.488281 134.777344 51.195313 C 135.007813 50.800781 134.984375 50.304688 134.710938 49.710938 C 134.671875 49.621094 134.628906 49.550781 134.589844 49.492188 C 134.097656 49.65625 133.496094 49.582031 132.785156 49.265625 C 132.34375 49.070313 132.027344 48.769531 131.839844 48.367188 C 131.503906 47.632813 131.652344 47.035156 132.28125 46.578125 C 132.617188 46.34375 133.101563 46.300781 133.734375 46.4375 C 134.054688 46.503906 134.378906 46.671875 134.699219 46.9375 C 134.726563 46.96875 134.992188 47.222656 135.488281 47.699219 "/>
<path style=" stroke:none;fill-rule:nonzero;fill:rgb(97.999573%,94.099426%,37.599182%);fill-opacity:1;" d="M 136.207031 58.292969 C 135.914063 58.648438 135.652344 58.886719 135.410156 59.011719 C 135.269531 59.078125 135.128906 59.132813 134.980469 59.175781 C 134.550781 59.292969 134.164063 59.25 133.816406 59.042969 C 133.46875 58.835938 133.230469 58.492188 133.097656 58.007813 C 132.707031 56.601563 133.214844 55.699219 134.621094 55.308594 C 135.332031 55.113281 135.996094 55.210938 136.609375 55.605469 C 137.222656 55.996094 137.628906 56.546875 137.828125 57.257813 C 138.1875 58.558594 137.691406 59.886719 136.335938 61.246094 L 136.148438 61.429688 L 140.492188 60.222656 L 138.621094 53.484375 L 139.640625 51.6875 L 142.675781 62.628906 L 141.675781 64.488281 L 140.882813 61.632813 L 129.980469 64.65625 L 130.808594 63.582031 C 131.324219 63.511719 132.035156 63.191406 132.945313 62.621094 C 133.785156 62.113281 134.382813 61.707031 134.734375 61.410156 C 135.3125 60.902344 135.738281 60.320313 136.003906 59.671875 C 136.222656 59.148438 136.289063 58.6875 136.207031 58.292969 "/>
<path style=" stroke:none;fill-rule:nonzero;fill:rgb(97.999573%,94.099426%,37.599182%);fill-opacity:1;" d="M 140.027344 76.699219 C 139.699219 75.863281 139.371094 75.164063 139.042969 74.601563 C 139.027344 74.589844 138.789063 74.246094 138.320313 73.574219 C 137.683594 74.890625 136.785156 75.917969 135.621094 76.660156 Z M 137.964844 80.835938 C 138.421875 80.78125 138.871094 80.542969 139.304688 80.117188 C 139.882813 79.550781 140.164063 78.894531 140.160156 78.140625 L 131.519531 78.0625 L 132.296875 77.296875 C 132.96875 77.078125 133.378906 76.9375 133.53125 76.871094 C 133.839844 76.71875 134.203125 76.464844 134.625 76.105469 C 135.1875 75.640625 135.578125 75.238281 135.804688 74.90625 C 136.285156 74.132813 136.578125 73.285156 136.683594 72.367188 L 138.703125 70.757813 C 140.160156 72.542969 141.226563 74.527344 141.902344 76.71875 L 142.363281 76.722656 L 142.421875 70.492188 L 143.894531 69.035156 L 143.769531 82.621094 L 142.296875 84.046875 L 142.351563 78.160156 L 142.015625 78.160156 C 142.007813 79.023438 141.632813 79.839844 140.886719 80.601563 C 140.183594 81.308594 139.394531 81.757813 138.515625 81.945313 C 138.183594 82.011719 137.875 82.042969 137.597656 82.042969 C 137.011719 82.035156 136.507813 81.863281 136.078125 81.527344 C 135.609375 81.160156 135.375 80.691406 135.382813 80.121094 C 135.386719 79.71875 135.535156 79.359375 135.828125 79.039063 C 136.125 78.722656 136.472656 78.566406 136.878906 78.570313 C 137.335938 78.574219 137.753906 78.808594 138.121094 79.269531 C 138.203125 79.535156 138.242188 79.773438 138.242188 79.980469 C 138.238281 80.316406 138.144531 80.597656 137.964844 80.835938 "/>
<path style=" stroke:none;fill-rule:nonzero;fill:rgb(97.999573%,94.099426%,37.599182%);fill-opacity:1;" d="M 142.148438 84.175781 L 143.886719 83.054688 L 141.011719 96.335938 L 139.253906 97.539063 Z M 132.15625 91.558594 C 131.867188 90.65625 131.800781 89.84375 131.957031 89.125 C 132.058594 88.660156 132.246094 88.195313 132.527344 87.730469 C 132.808594 87.265625 133.148438 86.890625 133.554688 86.609375 C 133.824219 86.410156 134.277344 86.164063 134.914063 85.875 C 135.820313 85.460938 136.574219 85.203125 137.183594 85.109375 C 138.984375 84.785156 140.613281 84.582031 142.078125 84.5 L 141.417969 85.46875 C 140.195313 85.683594 139.402344 85.832031 139.042969 85.914063 C 138.140625 86.113281 137.371094 86.351563 136.738281 86.628906 C 135.242188 87.253906 134.34375 88.253906 134.050781 89.625 C 133.917969 90.234375 134.0625 90.941406 134.488281 91.742188 C 134.804688 92.324219 135.246094 92.675781 135.816406 92.800781 C 136.28125 92.898438 136.742188 92.859375 137.210938 92.679688 C 137.738281 92.46875 138.050781 92.148438 138.144531 91.71875 C 138.160156 91.636719 138.171875 91.527344 138.171875 91.386719 C 137.839844 91.484375 137.480469 91.496094 137.101563 91.410156 C 136.003906 91.160156 135.582031 90.441406 135.835938 89.257813 C 136.058594 88.238281 136.722656 87.726563 137.835938 87.726563 C 138.046875 87.730469 138.234375 87.75 138.398438 87.785156 C 139.078125 87.929688 139.585938 88.324219 139.914063 88.964844 C 140.242188 89.5625 140.328125 90.210938 140.179688 90.902344 C 140.121094 91.160156 140.011719 91.472656 139.847656 91.835938 C 139.242188 93.113281 138.03125 93.847656 136.210938 94.039063 C 135.734375 94.078125 135.269531 94.046875 134.820313 93.949219 C 133.476563 93.660156 132.585938 92.859375 132.15625 91.558594 "/>
<path style=" stroke:none;fill-rule:nonzero;fill:rgb(97.999573%,94.099426%,37.599182%);fill-opacity:1;" d="M 125.3125 90.242188 C 125.667969 90.003906 126.550781 89.28125 127.953125 88.070313 L 129.203125 87.007813 L 130.441406 90.816406 L 131.652344 91.738281 L 129.136719 92.144531 L 128.320313 89.558594 C 127.675781 90.050781 126.816406 90.660156 125.746094 91.390625 C 125.308594 91.613281 124.941406 91.691406 124.640625 91.625 L 123.058594 91.238281 C 123.882813 91.039063 124.636719 90.707031 125.3125 90.242188 "/>
<path style=" stroke:none;fill-rule:nonzero;fill:rgb(97.999573%,94.099426%,37.599182%);fill-opacity:1;" d="M 141.777344 94.5625 L 142.773438 91.507813 L 145.347656 99.289063 L 144.722656 100.597656 L 141.777344 94.5625 "/>
<path style=" stroke:none;fill-rule:nonzero;fill:rgb(97.999573%,94.099426%,37.599182%);fill-opacity:1;" d="M 134.816406 100.449219 L 135.796875 103 C 136.300781 102.75 136.636719 102.433594 136.804688 102.050781 C 137.171875 101.207031 137.152344 100.46875 136.746094 99.835938 C 136.367188 100.460938 135.722656 100.664063 134.816406 100.449219 Z M 134.125 104.84375 L 135.175781 105.140625 L 138.660156 106.507813 L 137.644531 107.109375 C 137.582031 107.113281 137.507813 107.121094 137.429688 107.128906 C 137.097656 107.015625 136.855469 106.984375 136.695313 107.039063 L 136.40625 107.230469 C 136.351563 107.355469 136.269531 107.542969 136.164063 107.785156 C 135.988281 108.179688 135.867188 108.429688 135.789063 108.53125 L 133.921875 109.265625 L 135.101563 106.566406 L 125.234375 102.25 C 125.65625 101.980469 126.289063 101.695313 127.136719 101.398438 L 132.078125 103.71875 C 132.996094 103.8125 133.660156 103.75 134.078125 103.527344 L 132.210938 98.914063 L 133.660156 97.417969 L 134.300781 98.925781 C 134.34375 99.035156 134.464844 99.136719 134.667969 99.226563 C 135.179688 99.449219 135.488281 99.414063 135.597656 99.128906 C 135.625 99.066406 135.671875 98.628906 135.738281 97.824219 C 135.796875 97.546875 135.984375 97.34375 136.300781 97.214844 C 136.613281 97.085938 136.898438 97.078125 137.152344 97.191406 C 137.34375 97.273438 137.519531 97.425781 137.679688 97.648438 C 138.789063 99.210938 139.019531 100.769531 138.367188 102.324219 C 138.03125 103.132813 137.453125 103.761719 136.632813 104.207031 C 135.894531 104.613281 135.058594 104.824219 134.125 104.84375 "/>
<path style=" stroke:none;fill-rule:nonzero;fill:rgb(97.999573%,94.099426%,37.599182%);fill-opacity:1;" d="M 129.007813 116.007813 L 130.039063 114.589844 C 130.046875 114.578125 129.984375 114.523438 129.851563 114.425781 C 129.253906 113.988281 128.660156 114.175781 128.074219 114.984375 C 128.007813 115.074219 127.957031 115.15625 127.929688 115.21875 Z M 126.546875 114.210938 C 127.261719 113.460938 128.15625 113.085938 129.222656 113.089844 C 129.859375 113.089844 130.410156 113.207031 130.875 113.441406 L 132.066406 111.804688 C 131.871094 111.765625 131.605469 111.710938 131.265625 111.632813 C 131.230469 111.609375 131.109375 111.691406 130.898438 111.886719 C 130.277344 112.410156 129.46875 112.703125 128.476563 112.765625 C 127.484375 112.824219 126.640625 112.636719 125.945313 112.199219 C 125.351563 112.421875 124.757813 112.515625 124.164063 112.480469 Z M 128.148438 117.1875 L 127.203125 116.5 C 127.121094 116.609375 127.023438 116.742188 126.910156 116.898438 C 126.394531 117.609375 125.730469 118.050781 124.925781 118.222656 C 124.121094 118.394531 123.363281 118.222656 122.65625 117.707031 C 122.230469 117.394531 121.9375 117.035156 121.785156 116.632813 C 121.605469 116.171875 121.664063 115.734375 121.96875 115.320313 C 122.460938 114.644531 123 114.339844 123.589844 114.40625 C 123.789063 114.433594 123.972656 114.507813 124.128906 114.621094 C 124.308594 114.753906 124.445313 114.980469 124.542969 115.308594 C 124.640625 115.640625 124.628906 115.886719 124.503906 116.054688 C 124.3125 116.296875 124.164063 116.460938 124.058594 116.558594 C 123.878906 116.738281 123.6875 116.847656 123.484375 116.886719 C 123.53125 116.941406 123.5625 116.972656 123.574219 116.980469 C 123.796875 117.144531 124.09375 117.125 124.460938 116.929688 C 124.746094 116.773438 124.996094 116.570313 125.21875 116.316406 C 125.476563 116.007813 125.660156 115.71875 125.769531 115.453125 L 119.339844 110.769531 L 120.71875 110.691406 C 121.59375 110.949219 122.089844 111.097656 122.207031 111.128906 C 122.539063 111.214844 123.027344 111.277344 123.671875 111.316406 C 124.03125 111.339844 124.46875 111.226563 124.976563 110.976563 C 124.644531 110.390625 124.695313 109.800781 125.132813 109.207031 C 125.394531 108.84375 125.738281 108.636719 126.167969 108.578125 C 126.597656 108.519531 126.976563 108.609375 127.300781 108.847656 C 127.617188 109.078125 127.804688 109.386719 127.863281 109.777344 C 127.964844 110.277344 127.859375 110.742188 127.546875 111.171875 C 127.523438 111.207031 127.503906 111.234375 127.484375 111.253906 C 127.546875 111.335938 127.621094 111.40625 127.714844 111.472656 C 127.984375 111.671875 128.292969 111.75 128.640625 111.710938 C 128.988281 111.667969 129.261719 111.523438 129.460938 111.273438 C 129.507813 111.207031 129.535156 111.085938 129.539063 110.917969 C 129.464844 110.828125 129.367188 110.691406 129.25 110.5 C 128.898438 109.917969 128.898438 109.386719 129.253906 108.902344 C 129.480469 108.585938 129.804688 108.394531 130.222656 108.332031 C 130.640625 108.265625 131.046875 108.375 131.441406 108.664063 C 132.082031 109.128906 132.3125 109.675781 132.132813 110.300781 C 132.046875 110.394531 131.988281 110.5 131.953125 110.613281 C 132.042969 110.660156 132.265625 110.660156 132.628906 110.613281 C 132.828125 110.621094 132.9375 110.613281 132.953125 110.589844 L 133.886719 109.308594 L 135.878906 109.054688 L 126.796875 121.523438 L 124.742188 121.859375 L 128.148438 117.1875 "/>
<path style=" stroke:none;fill-rule:nonzero;fill:rgb(21.598816%,40.79895%,69.799805%);fill-opacity:1;" d="M 75 67.234375 L 75 68.472656 L 39.621094 50.136719 C 39.621094 50.136719 45.164063 40.9375 57.902344 34.570313 C 70.636719 28.203125 86.734375 30.03125 96.167969 34.570313 C 105.601563 39.109375 111.203125 44.769531 114.445313 49.839844 C 113.03125 50.609375 79.363281 68.414063 79.363281 68.414063 L 79.304688 67.414063 C 79.304688 67.414063 85.613281 64.699219 85.789063 64.464844 C 85.96875 64.226563 85.847656 63.109375 84.199219 59.925781 C 82.546875 56.738281 82.546875 56.738281 82.546875 56.738281 L 83.609375 51.90625 C 83.609375 51.90625 91.746094 58.507813 92.746094 59.511719 C 93.75 60.511719 94.8125 59.863281 95.105469 59.097656 C 95.402344 58.332031 95.164063 57.328125 93.21875 56.03125 C 96.109375 57.625 99.292969 58.625 99.585938 57.152344 C 99.882813 55.679688 95.695313 53.792969 93.75 53.085938 C 97.582031 53.4375 101.414063 53.792969 101.53125 52.554688 C 101.652344 51.316406 97.167969 50.960938 95.164063 50.609375 C 93.160156 50.253906 92.804688 50.019531 94.457031 49.898438 C 96.109375 49.78125 98.585938 49.605469 99.941406 49.429688 C 101.296875 49.253906 102.003906 49.015625 102.003906 48.011719 C 102.003906 47.011719 98.644531 47.660156 96.460938 47.660156 C 94.28125 47.660156 93.632813 47.425781 95.105469 47.011719 C 96.582031 46.597656 98.9375 45.597656 100.234375 45.066406 C 101.53125 44.535156 101.945313 44.179688 101.769531 43.589844 C 101.59375 43.003906 98.171875 43.886719 95.460938 44.769531 C 92.746094 45.65625 92.453125 45.535156 93.808594 44.652344 C 95.164063 43.769531 96.992188 42.175781 96.34375 41.234375 C 95.695313 40.289063 94.042969 41.703125 91.507813 43.179688 C 88.972656 44.652344 83.84375 47.660156 83.84375 47.660156 C 83.84375 47.660156 80.246094 33.332031 79.835938 32.035156 C 79.421875 30.738281 78.832031 30.621094 78.007813 30.738281 C 77.179688 30.855469 76.652344 32.035156 75.355469 35.75 C 74.054688 39.464844 73.171875 42.351563 72.996094 44.179688 C 72.820313 46.007813 72.820313 46.128906 72.9375 47.304688 C 73.054688 48.484375 73.054688 48.722656 71.699219 47.835938 C 70.34375 46.953125 62.382813 42 60.96875 41.054688 C 59.550781 40.113281 58.609375 41.175781 59.730469 42.53125 C 60.847656 43.886719 62.914063 45.183594 62.914063 45.183594 C 62.914063 45.183594 60.96875 44.886719 58.84375 44.179688 C 56.722656 43.472656 56.605469 45.007813 58.492188 46.066406 C 60.378906 47.128906 63.324219 47.71875 63.855469 47.835938 C 64.386719 47.953125 64.679688 48.308594 62.144531 48.191406 C 59.609375 48.070313 57.429688 48.132813 57.605469 48.484375 C 57.78125 48.839844 62.914063 50.902344 62.972656 51.195313 C 63.03125 51.492188 59.492188 51.667969 56.78125 51.785156 C 54.070313 51.90625 54.1875 54.261719 55.601563 54.382813 C 57.015625 54.5 62.207031 53.96875 62.027344 53.96875 C 61.851563 53.96875 59.257813 54.972656 57.84375 55.855469 C 56.425781 56.738281 57.253906 58.097656 58.902344 57.566406 C 60.554688 57.035156 65.035156 54.914063 65.800781 54.617188 C 66.570313 54.324219 67.277344 54.851563 65.742188 55.679688 C 64.210938 56.503906 63.148438 56.976563 62.441406 57.507813 C 61.734375 58.039063 61.554688 58.507813 62.085938 59.097656 C 62.617188 59.6875 63.148438 59.511719 64.210938 58.746094 C 65.269531 57.976563 70.871094 54.441406 71.816406 53.792969 C 72.757813 53.144531 73.289063 53.085938 72.699219 54.914063 C 72.109375 56.738281 70.460938 60.042969 69.632813 61.988281 C 68.808594 63.933594 69.164063 64.757813 70.992188 65.703125 C 72.820313 66.644531 75 67.234375 75 67.234375 "/>
<path style=" stroke:none;fill-rule:nonzero;fill:rgb(21.598816%,40.79895%,69.799805%);fill-opacity:1;" d="M 78.007813 39.699219 L 76.636719 43.460938 L 79.246094 43.460938 Z M 78.007813 39.699219 "/>
<path style=" stroke:none;fill-rule:nonzero;fill:rgb(21.598816%,40.79895%,69.799805%);fill-opacity:1;" d="M 76.679688 46.820313 L 78.847656 46.820313 C 78.847656 46.820313 78.804688 47.570313 79.246094 48.542969 C 79.6875 49.515625 80.617188 51.59375 79.730469 52.789063 C 78.847656 53.984375 78.359375 54.914063 77.785156 54.867188 C 77.210938 54.824219 76.328125 53.9375 75.707031 52.523438 C 75.089844 51.109375 75.554688 50.144531 76.015625 49.472656 C 76.59375 48.632813 76.769531 48.011719 76.679688 46.820313 "/>
<path style=" stroke:none;fill-rule:nonzero;fill:rgb(21.598816%,40.79895%,69.799805%);fill-opacity:1;" d="M 75.265625 59.996094 L 73.984375 62.429688 L 75.398438 62.695313 Z M 75.265625 59.996094 "/>
<path style=" stroke:none;fill-rule:nonzero;fill:rgb(21.598816%,40.79895%,69.799805%);fill-opacity:1;" d="M 79.910156 61.058594 L 79.511719 62.695313 L 80.351563 62.695313 Z M 79.910156 61.058594 "/>
<path style=" stroke:none;fill-rule:nonzero;fill:rgb(21.598816%,40.79895%,69.799805%);fill-opacity:1;" d="M 115.859375 52.257813 L 92.6875 64.464844 C 92.6875 64.464844 101.355469 65.789063 102.507813 65.96875 C 103.65625 66.144531 103.832031 66.410156 103.832031 67.648438 C 103.832031 68.886719 103.832031 70.921875 103.832031 70.921875 C 103.832031 70.921875 107.8125 70.921875 108.960938 70.921875 C 110.113281 70.921875 110.730469 71.804688 111.085938 72.867188 C 119.132813 72.867188 122.582031 72.867188 122.582031 72.867188 C 122.582031 72.867188 122.316406 62.960938 115.859375 52.257813 "/>
<path style=" stroke:none;fill-rule:nonzero;fill:rgb(21.598816%,40.79895%,69.799805%);fill-opacity:1;" d="M 122.050781 77.140625 L 112.324219 77.140625 L 112.324219 76.019531 L 122.023438 76.179688 C 122.023438 76.179688 122.050781 76.890625 122.050781 77.140625 "/>
<path style=" stroke:none;fill-rule:nonzero;fill:rgb(21.598816%,40.79895%,69.799805%);fill-opacity:1;" d="M 119.753906 86.101563 C 119.753906 86.929688 119.164063 87.988281 118.160156 87.871094 C 117.15625 87.753906 117.039063 87.402344 117.039063 86.75 C 117.039063 86.101563 117.039063 83.15625 117.039063 81.800781 C 117.039063 80.441406 117.511719 80.5 118.453125 80.5 C 119.398438 80.5 119.753906 80.679688 119.753906 81.800781 C 119.753906 82.917969 119.753906 86.101563 119.753906 86.101563 "/>
<path style=" stroke:none;fill-rule:nonzero;fill:rgb(21.598816%,40.79895%,69.799805%);fill-opacity:1;" d="M 111.851563 81.445313 C 111.851563 81.445313 111.851563 84.570313 111.851563 85.984375 C 111.851563 87.402344 111.96875 87.402344 109.90625 87.402344 C 107.84375 87.402344 107.722656 87.460938 107.722656 85.632813 C 107.722656 83.804688 107.722656 83.390625 107.722656 82.328125 C 107.722656 81.269531 108.667969 80.621094 109.90625 80.621094 C 111.144531 80.621094 111.851563 81.445313 111.851563 81.445313 "/>
<path style=" stroke:none;fill-rule:nonzero;fill:rgb(21.598816%,40.79895%,69.799805%);fill-opacity:1;" d="M 104.054688 74.589844 C 103.816406 75.304688 104.585938 76.714844 106.175781 76.757813 C 107.769531 76.800781 108.609375 75.828125 108.519531 75.210938 C 108.433594 74.589844 107.8125 73.972656 106.484375 73.792969 C 105.160156 73.617188 104.1875 74.191406 104.054688 74.589844 "/>
<path style=" stroke:none;fill-rule:nonzero;fill:rgb(21.598816%,40.79895%,69.799805%);fill-opacity:1;" d="M 100.234375 68.652344 C 100.234375 68.652344 100.296875 70.417969 100.472656 72.601563 C 100.648438 74.78125 100.765625 75.019531 99.644531 75.019531 C 98.527344 75.019531 97.640625 75.371094 95.871094 74.78125 C 94.105469 74.191406 94.222656 72.363281 94.695313 70.125 C 95.164063 67.882813 96.226563 67.941406 97.167969 68 C 98.113281 68.0625 100.234375 68.652344 100.234375 68.652344 "/>
<path style=" stroke:none;fill-rule:nonzero;fill:rgb(21.598816%,40.79895%,69.799805%);fill-opacity:1;" d="M 102.59375 80.472656 L 101.710938 86.75 C 101.710938 86.75 99.144531 87.015625 96.757813 87.015625 C 94.367188 87.015625 93.75 85.777344 93.75 83.300781 C 93.75 80.824219 94.8125 80.207031 97.023438 80.207031 C 99.234375 80.207031 102.59375 80.472656 102.59375 80.472656 "/>
<path style=" stroke:none;fill-rule:nonzero;fill:rgb(21.598816%,40.79895%,69.799805%);fill-opacity:1;" d="M 88.621094 68.179688 L 88.621094 86.574219 C 88.621094 86.574219 81.542969 86.574219 80.21875 86.574219 C 78.890625 86.574219 78.359375 86.398438 78.359375 83.746094 C 78.359375 81.089844 78.359375 73.132813 78.359375 73.132813 L 88.621094 68.179688 "/>
<path style=" stroke:none;fill-rule:nonzero;fill:rgb(21.598816%,40.79895%,69.799805%);fill-opacity:1;" d="M 72.230469 71.125 L 73.230469 71.125 L 73.230469 74.722656 L 72.167969 74.722656 L 72.230469 71.125 "/>
<path style=" stroke:none;fill-rule:nonzero;fill:rgb(21.598816%,40.79895%,69.799805%);fill-opacity:1;" d="M 70.105469 70.878906 L 70.105469 74.605469 L 68.71875 74.605469 L 68.71875 70.878906 L 70.105469 70.878906 "/>
<path style=" stroke:none;fill-rule:nonzero;fill:rgb(21.598816%,40.79895%,69.799805%);fill-opacity:1;" d="M 64.34375 79.191406 L 64.34375 87.753906 L 60.269531 87.753906 L 60.269531 79.191406 L 64.34375 79.191406 "/>
<path style=" stroke:none;fill-rule:nonzero;fill:rgb(21.598816%,40.79895%,69.799805%);fill-opacity:1;" d="M 73.347656 80.84375 L 73.347656 88.109375 L 69.941406 88.109375 L 69.941406 80.84375 L 73.347656 80.84375 "/>
<path style=" stroke:none;fill-rule:nonzero;fill:rgb(21.598816%,40.79895%,69.799805%);fill-opacity:1;" d="M 51.53125 68.753906 L 51.53125 72.484375 L 50.617188 72.484375 L 50.617188 68.753906 L 51.53125 68.753906 "/>
<path style=" stroke:none;fill-rule:nonzero;fill:rgb(21.598816%,40.79895%,69.799805%);fill-opacity:1;" d="M 45.519531 68.753906 L 45.519531 72.484375 L 44.601563 72.484375 L 44.601563 68.753906 L 45.519531 68.753906 "/>
<path style=" stroke:none;fill-rule:nonzero;fill:rgb(21.598816%,40.79895%,69.799805%);fill-opacity:1;" d="M 40.78125 68.753906 L 40.78125 72.484375 L 39.863281 72.484375 L 39.863281 68.753906 L 40.78125 68.753906 "/>
<path style=" stroke:none;fill-rule:nonzero;fill:rgb(21.598816%,40.79895%,69.799805%);fill-opacity:1;" d="M 37.007813 68.753906 L 37.007813 72.484375 L 36.089844 72.484375 L 36.089844 68.753906 L 37.007813 68.753906 "/>
<path style=" stroke:none;fill-rule:nonzero;fill:rgb(21.598816%,40.79895%,69.799805%);fill-opacity:1;" d="M 35.949219 76.714844 L 35.949219 84.15625 L 33.808594 84.15625 L 33.808594 76.714844 L 35.949219 76.714844 "/>
<path style=" stroke:none;fill-rule:nonzero;fill:rgb(21.598816%,40.79895%,69.799805%);fill-opacity:1;" d="M 43.671875 77.363281 L 43.671875 84.453125 L 40.824219 84.453125 L 40.824219 77.363281 L 43.671875 77.363281 "/>
<path style=" stroke:none;fill-rule:nonzero;fill:rgb(21.598816%,40.79895%,69.799805%);fill-opacity:1;" d="M 52.855469 79.117188 L 52.890625 86.929688 L 49.433594 85.632813 L 49.433594 78.542969 L 52.855469 79.117188 "/>
<path style=" stroke:none;fill-rule:nonzero;fill:rgb(21.598816%,40.79895%,69.799805%);fill-opacity:1;" d="M 88.53125 120.449219 C 88.53125 120.449219 86.585938 121.953125 77.121094 121.863281 C 67.660156 121.773438 62.972656 119.742188 62.085938 119.386719 C 65.183594 118.238281 65.714844 118.0625 65.714844 118.0625 C 65.714844 118.0625 69.339844 120.539063 71.726563 120.980469 C 74.117188 121.421875 75.617188 121.15625 78.09375 119.5625 C 80.570313 117.972656 85.523438 117.53125 88.53125 120.449219 "/>
<path style=" stroke:none;fill-rule:nonzero;fill:rgb(21.598816%,40.79895%,69.799805%);fill-opacity:1;" d="M 103.480469 113.109375 C 103.480469 113.109375 100.648438 115.496094 98.4375 116.558594 C 96.226563 117.617188 96.667969 117.882813 94.105469 116.644531 C 91.539063 115.40625 86.851563 113.640625 83.757813 113.550781 C 80.660156 113.460938 78.714844 114.167969 76.679688 115.40625 C 74.644531 116.644531 74.117188 117 70.488281 115.585938 C 66.863281 114.167969 65.800781 113.726563 64.03125 113.640625 C 62.265625 113.550781 61.378906 113.726563 58.902344 114.523438 C 56.425781 115.320313 55.632813 116.46875 54.214844 116.113281 C 52.800781 115.761719 50.058594 113.109375 50.058594 113.109375 C 50.058594 113.109375 52.710938 113.726563 54.394531 113.949219 C 56.074219 114.167969 58.859375 114.742188 61.734375 113.242188 C 64.609375 111.738281 65.757813 111.914063 68.851563 113.375 C 71.949219 114.832031 74.027344 115.671875 75.882813 114.878906 C 77.742188 114.082031 80.792969 112.089844 85.570313 112.976563 C 90.34375 113.859375 92.421875 115.273438 93.617188 115.496094 C 94.8125 115.71875 98.082031 116.425781 103.480469 113.109375 "/>
<path style=" stroke:none;fill-rule:nonzero;fill:rgb(21.598816%,40.79895%,69.799805%);fill-opacity:1;" d="M 108.785156 108.566406 L 107.902344 109.804688 C 107.902344 109.804688 106.898438 108.921875 103.890625 108.804688 C 100.882813 108.6875 100.058594 109.394531 98.113281 110.394531 C 96.167969 111.398438 95.753906 112.28125 93.335938 110.984375 C 90.917969 109.6875 88.03125 107.917969 84.964844 107.683594 C 81.898438 107.445313 80.660156 107.625 77.949219 109.039063 C 75.234375 110.457031 75.058594 110.75 72.167969 109.746094 C 69.28125 108.746094 67.097656 107.800781 64.386719 107.800781 C 61.675781 107.800781 60.96875 108.390625 59.433594 109.214844 C 57.902344 110.042969 56.722656 110.21875 53.949219 109.453125 C 51.179688 108.6875 49.765625 107.859375 48.347656 107.507813 C 46.933594 107.152344 44.8125 108.628906 44.8125 108.628906 L 43.394531 106.976563 C 43.394531 106.976563 43.808594 105.972656 46.285156 105.972656 C 48.761719 105.972656 49.644531 107.445313 52.300781 107.859375 C 54.953125 108.273438 57.371094 108.449219 60.082031 107.152344 C 62.792969 105.855469 64.976563 104.972656 67.453125 106.445313 C 69.929688 107.917969 71.226563 108.6875 74.117188 108.507813 C 77.003906 108.332031 80.011719 105.738281 84.609375 105.972656 C 89.210938 106.210938 90.269531 109.214844 94.929688 109.214844 C 99.585938 109.214844 100 108.746094 102.242188 107.859375 C 104.480469 106.976563 106.898438 107.566406 108.785156 108.566406 "/>
<path style=" stroke:none;fill-rule:nonzero;fill:rgb(21.598816%,40.79895%,69.799805%);fill-opacity:1;" d="M 114.210938 102.964844 L 112.265625 104.734375 C 112.265625 104.734375 109.671875 102.140625 106.605469 102.554688 C 103.539063 102.964844 101.828125 105.5625 97.464844 105.382813 C 93.101563 105.207031 92.335938 102.140625 86.027344 101.789063 C 79.71875 101.433594 77.179688 102.554688 75.765625 103.496094 C 74.351563 104.441406 74.351563 104.675781 72.820313 103.792969 C 71.285156 102.90625 70.28125 101.847656 69.515625 101.492188 C 68.75 101.140625 65.332031 100.429688 61.734375 101.789063 C 58.136719 103.144531 54.953125 104.320313 53.242188 104.085938 C 51.53125 103.851563 50.472656 102.496094 47.9375 101.550781 C 45.402344 100.609375 41.628906 101.789063 40.800781 102.199219 C 39.976563 102.613281 39.976563 102.613281 39.976563 102.613281 L 38.914063 101.195313 C 38.914063 101.195313 40.566406 99.371094 44.574219 99.488281 C 48.585938 99.605469 48.9375 102.023438 53.359375 102.082031 C 57.78125 102.140625 59.140625 101.492188 62.675781 99.605469 C 66.214844 97.71875 68.160156 99.429688 70.046875 100.84375 C 71.933594 102.257813 72.40625 103.085938 75 102.730469 C 77.59375 102.378906 82.84375 99.074219 87.027344 100.019531 C 91.214844 100.960938 95.222656 103.496094 98.878906 103.261719 C 102.535156 103.023438 103.421875 102.316406 106.132813 101.195313 C 108.84375 100.078125 112.617188 101.492188 114.210938 102.964844 "/>
<path style=" stroke:none;fill-rule:nonzero;fill:rgb(21.598816%,40.79895%,69.799805%);fill-opacity:1;" d="M 118.515625 95.773438 L 117.011719 98.160156 C 117.011719 98.160156 116.214844 96.746094 112.5 96.214844 C 108.785156 95.683594 105.867188 95.773438 105.867188 95.773438 C 105.867188 95.773438 102.417969 98.515625 100.558594 98.601563 C 98.703125 98.691406 95.429688 97.277344 92.601563 96.304688 C 89.769531 95.332031 90.476563 95.066406 85.878906 95.152344 C 81.28125 95.242188 80.75 95.683594 77.832031 97.011719 C 74.910156 98.339844 74.46875 98.425781 71.726563 97.011719 C 68.984375 95.597656 67.511719 94.59375 67.335938 94.59375 C 67.15625 94.59375 63.679688 94.535156 63.265625 94.535156 C 62.855469 94.535156 56.367188 97.601563 53.890625 97.363281 C 51.414063 97.128906 47.347656 94.179688 45.578125 94.003906 C 43.808594 93.828125 43.457031 94.0625 41.6875 94.886719 C 39.917969 95.714844 36.496094 97.246094 36.496094 97.246094 L 34.964844 93.414063 L 118.515625 95.773438 "/>
<path style=" stroke:none;fill-rule:nonzero;fill:rgb(97.999573%,94.099426%,37.599182%);fill-opacity:1;" d="M 76.945313 127.632813 L 79.007813 133.976563 L 85.675781 133.976563 L 80.28125 137.894531 L 82.339844 144.234375 L 76.945313 140.316406 L 71.550781 144.234375 L 73.613281 137.894531 L 68.21875 133.976563 L 74.886719 133.976563 L 76.945313 127.632813 "/>
</g>
</svg>
